<svg id="Layer_1" enable-background="new 0 0 512 512" height="512" viewBox="0 0 512 512" width="512" xmlns="http://www.w3.org/2000/svg"><g><path d="m507.606 395.512-81.129-81.138-1.671-20.564 22.359-13.626c6.324-3.854 8.889-11.746 6.039-18.582l-10.075-24.166 17.052-19.868c4.823-5.619 4.824-13.917.002-19.538l-17.055-19.875 10.076-24.167c2.85-6.835.285-14.728-6.039-18.582l-22.359-13.626 2.12-26.094c.6-7.382-4.279-14.097-11.484-15.809l-25.472-6.049-6.051-25.479c-1.711-7.207-8.44-12.082-15.808-11.485l-26.102 2.12-13.627-22.36c-3.854-6.326-11.751-8.887-18.584-6.038l-24.164 10.082-19.864-17.051c-5.619-4.823-13.92-4.823-19.539 0l-19.866 17.051-24.165-10.081c-6.837-2.851-14.729-.287-18.584 6.038l-13.627 22.36-26.102-2.12c-7.382-.591-14.096 4.278-15.808 11.485l-6.051 25.479-25.472 6.049c-7.205 1.712-12.084 8.427-11.484 15.809l2.12 26.094-22.359 13.626c-6.324 3.854-8.889 11.746-6.039 18.582l10.076 24.167-17.055 19.875c-4.822 5.62-4.821 13.918.002 19.538l17.052 19.868-10.075 24.166c-2.85 6.835-.285 14.728 6.039 18.582l22.359 13.626-1.671 20.564-81.127 81.137c-3.676 3.676-5.187 8.993-3.992 14.053 1.194 5.06 4.924 9.14 9.855 10.784l61.048 20.347 20.347 61.048c1.644 4.932 5.724 8.661 10.784 9.855s10.377-.316 14.053-3.992l111.391-111.382 18.349 15.755c5.592 4.801 13.893 4.851 19.543 0l18.349-15.755 111.391 111.381c3.676 3.676 8.993 5.187 14.053 3.992 5.06-1.194 9.14-4.924 10.784-9.855l20.347-61.048 61.048-20.347c4.932-1.644 8.661-5.724 9.855-10.784 1.194-5.059-.317-10.377-3.993-14.052zm-395.163 73.72-15.05-45.146c-1.493-4.479-5.009-7.994-9.487-9.487l-45.136-15.044 61.912-61.913 17.347 4.121 6.052 25.479c1.712 7.207 8.447 12.082 15.808 11.485l26.102-2.12 13.283 21.797zm208.76-116.13-11.736 19.258-20.812-8.683c-5.229-2.182-11.245-1.23-15.547 2.463l-17.108 14.689-17.108-14.689c-6.015-5.165-12.781-3.617-15.547-2.463l-20.812 8.683-11.736-19.258c-2.948-4.838-8.362-7.601-14.022-7.145l-22.481 1.826-5.212-21.944c-1.309-5.514-5.614-9.818-11.127-11.128l-21.937-5.211 1.826-22.474c.459-5.649-2.306-11.074-7.146-14.023l-19.26-11.737 8.678-20.813c2.181-5.23 1.229-11.242-2.463-15.542l-14.687-17.112 14.688-17.118c3.689-4.3 4.642-10.311 2.461-15.541l-8.678-20.813 19.26-11.737c4.84-2.95 7.604-8.375 7.146-14.023l-1.826-22.474 21.937-5.21c5.513-1.309 9.818-5.614 11.127-11.128l5.212-21.944 22.481 1.825c5.649.463 11.073-2.305 14.022-7.145l11.736-19.258 20.812 8.683c5.228 2.181 11.244 1.23 15.545-2.461l17.111-14.687 17.11 14.687c4.302 3.692 10.315 4.642 15.545 2.461l20.812-8.683 11.736 19.258c2.949 4.839 8.366 7.61 14.022 7.145l22.481-1.825 5.212 21.944c1.309 5.514 5.614 9.819 11.127 11.128l21.937 5.21-1.826 22.474c-.459 5.649 2.306 11.074 7.146 14.023l19.26 11.737-8.678 20.813c-2.181 5.229-1.229 11.241 2.461 15.541l14.688 17.118-14.687 17.112c-3.691 4.3-4.644 10.312-2.463 15.542l8.678 20.813-19.26 11.737c-4.84 2.95-7.604 8.375-7.146 14.023l1.826 22.474-21.937 5.211c-5.513 1.31-9.818 5.614-11.127 11.128l-5.212 21.944-22.481-1.826c-5.648-.459-11.072 2.305-14.021 7.145zm102.891 61.497c-4.479 1.493-7.994 5.008-9.487 9.487l-15.05 45.146-70.829-70.829 13.283-21.797 26.102 2.12c7.36.597 14.096-4.278 15.808-11.485l6.052-25.479 17.347-4.121 61.912 61.913z"/><path d="m379.073 165.06-45.444-45.444c-5.857-5.858-15.355-5.858-21.213 0l-72.482 72.482-32.316-32.315c-5.857-5.858-15.355-5.858-21.213 0l-45.444 45.445c-5.858 5.858-5.858 15.355 0 21.213l88.367 88.367c5.858 5.859 15.357 5.857 21.213 0l128.533-128.534c5.858-5.859 5.858-15.356-.001-21.214zm-139.139 117.927-67.154-67.153 24.231-24.231 32.316 32.315c5.857 5.858 15.355 5.858 21.213 0l72.482-72.482 24.231 24.231z"/></g></svg>