<svg id="Capa_1" enable-background="new 0 0 478.72 478.72" height="512" viewBox="0 0 478.72 478.72" width="512" xmlns="http://www.w3.org/2000/svg"><g><path d="m322.165 172.109v141.251h30v-53.188c0-12.313 5.37-20.914 13.059-20.914 10.285 0 9.409 12.767 9.409 20.836 0 .044.196 53.321.196 53.321l29.999-.11-.195-53.128c.09-19.225-3.848-32.182-12.389-40.768-6.701-6.736-15.792-10.151-27.021-10.151-4.544 0-8.929.744-13.059 2.168v-39.317z"/><path d="m249.908 168.089-62.146 108.305h68.703l-.089 34.197 30 .078.089-34.275h15.041v-30h-14.964l.202-78.305zm6.634 78.305h-16.978l17.054-29.722z"/><path d="m150.391 165.36c-21.304 0-39.742 15.156-43.843 36.038l-2.891 14.719 29.438 5.781 2.891-14.719c1.345-6.849 7.403-11.819 14.405-11.819 7.831 0 14.249 6.162 14.66 13.892-.531 7.852-5.809 15.624-10.173 21.857-27.809 39.732-39.983 52.784-40.071 52.878l-4.118 4.321-.094 24.824 89.349.273.092-30-46.021-.141c6.492-8.486 14.91-19.905 25.442-34.953 7.838-11.2 15.083-24.292 15.616-38.271-.001-24.636-20.045-44.68-44.682-44.68z"/><path d="m413.001 80.7c-42.38-42.379-98.727-65.719-158.66-65.719-51.215 0-101.307 17.709-141.047 49.866-39.153 31.682-66.792 76.038-77.824 124.897l29.264 6.607c9.552-42.307 33.5-80.727 67.432-108.183 34.418-27.85 77.808-43.188 122.176-43.188 107.181 0 194.379 87.198 194.379 194.379s-87.198 194.379-194.379 194.379c-94.62 0-173.652-67.963-190.88-157.633l7.448 6.104 19.016-23.203-38.756-31.762h-12.415l-38.755 31.762 19.016 23.203 13.211-10.827c6.787 47.784 28.72 91.903 63.454 126.638 42.38 42.379 98.727 65.719 158.66 65.719s116.28-23.34 158.66-65.719c42.379-42.38 65.719-98.727 65.719-158.66s-23.34-116.28-65.719-158.66z"/></g></svg>